<svg xmlns="http://www.w3.org/2000/svg" width="1280" height="720" viewBox="0 0 1280 720">
  <defs>
    <linearGradient id="bg2" x1="0" y1="0" x2="1" y2="1">
      <stop offset="0%" stop-color="#264653"/>
      <stop offset="100%" stop-color="#4f6d7a"/>
    </linearGradient>
    <pattern id="grid" width="28" height="28" patternUnits="userSpaceOnUse">
      <path d="M0 0H28V28H0Z" fill="#3f5863"/>
      <path d="M0 0H28M0 0V28" stroke="#6f8a96" stroke-width="0.8" opacity="0.4"/>
    </pattern>
  </defs>
  <rect width="1280" height="720" fill="url(#bg2)"/>
  <rect x="0" y="150" width="1280" height="570" fill="url(#grid)"/>
  <path d="M360 170 L880 150 L980 520 L410 560 Z" fill="none" stroke="#ffe082" stroke-width="6"/>
  <ellipse cx="310" cy="190" rx="190" ry="86" fill="#f7f9fb" opacity="0.5"/>
  <ellipse cx="600" cy="210" rx="250" ry="95" fill="#f7f9fb" opacity="0.55"/>
  <ellipse cx="930" cy="220" rx="220" ry="90" fill="#f7f9fb" opacity="0.52"/>
  <ellipse cx="740" cy="390" rx="260" ry="130" fill="#f7f9fb" opacity="0.34"/>
  <rect x="372" y="164" width="520" height="400" fill="#fff59d" opacity="0.08"/>
  <text x="40" y="66" fill="#ffffff" font-size="38" font-family="Arial, sans-serif">CAP-002-B / CONDITIONAL</text>
  <text x="40" y="112" fill="#e7eff3" font-size="24" font-family="Arial, sans-serif">Partial cloud over AOI, acceptable with warning</text>
  <rect x="930" y="24" width="318" height="88" rx="8" fill="#1e272e" opacity="0.72"/>
  <text x="950" y="58" fill="#ffd166" font-size="24" font-family="Arial, sans-serif">QUALITY: CONDITIONAL</text>
  <text x="950" y="90" fill="#fff1c1" font-size="20" font-family="Arial, sans-serif">CLOUD: 22% / RES: 1.0m</text>
</svg>
