<svg xmlns="http://www.w3.org/2000/svg" width="1280" height="720" viewBox="0 0 1280 720">
  <defs>
    <linearGradient id="bg3" x1="0" y1="0" x2="1" y2="1">
      <stop offset="0%" stop-color="#3b0f1a"/>
      <stop offset="100%" stop-color="#6f1d1b"/>
    </linearGradient>
    <pattern id="storm" width="36" height="36" patternUnits="userSpaceOnUse">
      <rect width="36" height="36" fill="#5f2c2a"/>
      <path d="M0 18H36M18 0V36" stroke="#a4534f" stroke-width="1" opacity="0.4"/>
    </pattern>
  </defs>
  <rect width="1280" height="720" fill="url(#bg3)"/>
  <rect x="0" y="140" width="1280" height="580" fill="url(#storm)"/>
  <ellipse cx="320" cy="220" rx="220" ry="110" fill="#fce8e6" opacity="0.6"/>
  <ellipse cx="620" cy="210" rx="250" ry="120" fill="#fce8e6" opacity="0.62"/>
  <ellipse cx="940" cy="240" rx="260" ry="125" fill="#fce8e6" opacity="0.58"/>
  <ellipse cx="710" cy="390" rx="310" ry="170" fill="#fce8e6" opacity="0.55"/>
  <path d="M420 160 L900 150 L1020 520 L470 560 Z" fill="none" stroke="#ffb3b3" stroke-width="5" stroke-dasharray="10 8"/>
  <text x="540" y="390" fill="#7d1416" font-size="180" font-family="Arial, sans-serif" opacity="0.6">X</text>
  <text x="40" y="66" fill="#ffffff" font-size="38" font-family="Arial, sans-serif">CAP-003-A / FAIL</text>
  <text x="40" y="112" fill="#ffe2e0" font-size="24" font-family="Arial, sans-serif">Cloud over limit in AOI, unusable for delivery</text>
  <rect x="980" y="24" width="268" height="88" rx="8" fill="#2a0d0e" opacity="0.78"/>
  <text x="1000" y="58" fill="#ff8a80" font-size="24" font-family="Arial, sans-serif">QUALITY: FAIL</text>
  <text x="1000" y="90" fill="#ffd1cc" font-size="20" font-family="Arial, sans-serif">CLOUD: 58%</text>
</svg>
